# AST/ASF file generated using VICON BodyLanguage
# -----------------------------------------------
:version 1.10
:name VICON
:units
  mass 1.0
  length 0.45
  angle deg
:documentation
   .ast/.asf automatically generated from VICON data using
   VICON BodyBuilder and BodyLanguage model FoxedUp or BRILLIANT.MOD
:root
   order TX TY TZ RX RY RZ
   axis XYZ
   position 0 0 0  
   orientation 0 0 0 
:bonedata
  begin
     id 1 
     name lhipjoint
     direction 0.722297 -0.617336 0.311742 
     length 2.6635 
     axis 0 0 0  XYZ
  end
  begin
     id 2 
     name lfemur
     direction 0.34202 -0.939693 0  
     length 7.39349  
     axis 0 0 20  XYZ
    dof rx ry rz
    limits (-160.0 20.0)
           (-70.0 70.0)
           (-60.0 70.0)
  end
  begin
     id 3 
     name ltibia
     direction 0.34202 -0.939693 0   
     length 7.36294   
     axis 0 0 20   XYZ
    dof rx
    limits (-10.0 170.0)
  end
  begin
     id 4 
     name lfoot
     direction 0.104879 -0.288152 0.951824   
     length 2.16981   
     axis -90 7.62852e-016 20   XYZ
    dof rx rz
    limits (-45.0 90.0)
           (-70.0 20.0)
  end
  begin
     id 5 
     name ltoes
     direction 1.53586e-011 -4.21895e-011 1   
     length 1.08218   
     axis -90 7.62852e-016 20   XYZ
    dof rx
    limits (-90.0 20.0)
  end
  begin
     id 6 
     name rhipjoint
     direction -0.75102 -0.589393 0.297631   
     length 2.78977  
     axis 0 0 0  XYZ 
  end
  begin
     id 7 
     name rfemur
     direction -0.34202 -0.939693 0   
     length 7.46076   
     axis 0 0 -20   XYZ
    dof rx ry rz
    limits (-160.0 20.0)
           (-70.0 70.0)
           (-70.0 60.0)
  end
  begin
     id 8 
     name rtibia
     direction -0.34202 -0.939693 0   
     length 7.31726   
     axis 0 0 -20   XYZ
    dof rx
    limits (-10.0 170.0)
 end
 begin
     id 9 
     name rfoot
     direction -0.107991 -0.296704 0.948844   
     length 2.09388  
     axis -90 -7.62852e-016 -20   XYZ
    dof rx rz
    limits (-45.0 90.0)
           (-20.0 70.0)
  end
  begin
     id 10 
     name rtoes
     direction -1.53559e-011 -4.21911e-011 1   
     length 1.04433   
     axis -90 -7.62852e-016 -20   XYZ
    dof rx
    limits (-90.0 20.0)
  end
  begin
     id 11 
     name lowerback
     direction 0.0165164 0.98272 0.184358   
     length 1.71896   
     axis 0 0 0   XYZ
    dof rx ry rz
    limits (-20.0 45.0)
           (-30.0 30.0)
           (-30.0 30.0)
  end
  begin
     id 12 
     name upperback
     direction -0.00887249 0.992297 0.123566   
     length 1.71504   
     axis 0 0 0   XYZ
    dof rx ry rz
    limits (-20.0 45.0)
           (-30.0 30.0)
           (-30.0 30.0)
  end
  begin
     id 13 
     name thorax
     direction -0.0157026 0.998908 0.0440032   
     length 1.77022   
     axis 0 0 0   XYZ
    dof rx ry rz
    limits (-20.0 45.0)
           (-30.0 30.0)
           (-30.0 30.0)
  end
  begin
     id 14 
     name lowerneck
     direction -0.0238856 0.998137 0.0561411   
     length 1.89341   
     axis 0 0 0   XYZ
    dof rx ry rz
    limits (-20.0 45.0)
           (-30.0 30.0)
           (-30.0 30.0)
  end
  begin
     id 15 
     name upperneck
     direction 0.0276574 0.952253 -0.304056   
     length 1.86999   
     axis 0 0 0   XYZ
    dof rx ry rz
    limits (-20.0 45.0)
           (-30.0 30.0)
           (-30.0 30.0)
  end
  begin
     id 16
     name head
     direction 0.00800083 0.994258 -0.106712  
     length 1.91492  
     axis 0 0 0   XYZ
    dof rx ry rz
    limits (-20.0 45.0)
           (-30.0 30.0)
           (-30.0 30.0)
  end
  begin
     id 17 
     name lclavicle
     direction 0.97203 0.225407 0.06595  
     length 3.34889  
     axis 0 0 0   XYZ
    dof ry rz
    limits (-20.0 10.0)
           (0.0 20.0)
  end
  begin
     id 18 
     name lhumerus
     direction 1 -4.48973e-011 2.20267e-027   
     length 4.85645   
     axis 180 -30 -90   XYZ
    dof rx ry rz
    limits (-60.0 90.0)
           (-90.0 90.0)
           (-90.0 90.0)
  end
  begin
     id 19
     name lradius
     direction 1 -4.4897e-011 4.60472e-027   
     length 2.79874   
     axis 180 -30 -90   XYZ
    dof rx
    limits (-10.0 170.0)
  end
  begin
     id 20
     name lwrist
     direction 1 -4.48952e-011 1.14928e-026   
     length 1.39937   
     axis -6.29373e-015 90 90   XYZ
    dof ry
    limits (-180.0 0.0)
 end
  begin
     id 21 
     name lhand
     direction 1 -4.48967e-011 2.29886e-026   
     length 0.573398   
     axis -1.46689e-014 90 90   XYZ
    dof rx rz
    limits (-90.0 90.0)
           (-45.0 45.0)
  end
  begin
     id 22 
     name lfingers
     direction 1 -4.48955e-011 4.59726e-026   
     length 0.462289   
     axis -2.93383e-014 90 90   XYZ
    dof rx
    limits (0.0 90.0)
  end
  begin
     id 23
     name lthumb
     direction 0.707107 -6.34866e-011 0.707107   
     length 0.663757   
     axis -90 45 5.69224e-014   XYZ
    dof rx rz
    limits (-45.0 45.0)
           (-45.0 45.0)
  end
  begin
     id 24 
     name rclavicle
     direction -0.981571 0.157346 0.108443   
     length 3.35257  
     axis 0 0 0   XYZ 
    dof ry rz
    limits (-10.0 20.0)
           (-20.0 0.0)
  end
  begin
     id 25 
     name rhumerus
     direction -1 -4.48967e-011 8.58308e-029  
     length 4.67018   
     axis 180 30 90   XYZ
    dof rx ry rz
    limits (-90.0 60.0)
           (-90.0 90.0)
           (-90.0 90.0)
  end
  begin
     id 26 
     name rradius
     direction -1 -4.48958e-011 4.52548e-027   
     length 2.65534   
     axis 180 30 90   XYZ
    dof rx
    limits (-10.0 170.0)
  end
  begin
     id 27 
     name rwrist
     direction -1 -4.48977e-011 1.14952e-026   
     length 1.32767   
     axis -6.29373e-015 -90 -90   XYZ
    dof ry
    limits (-180.0 0.0)
  end
  begin
     id 28
     name rhand
     direction -1 -4.48924e-011 2.29804e-026   
     length 0.594069   
     axis -1.46689e-014 -90 -90   XYZ
    dof rx rz
    limits (-90.0 90.0)
           (-45.0 45.0)
  end
  begin
     id 29
     name rfingers
     direction -1 -4.48998e-011 4.59888e-026   
     length 0.478954   
     axis -2.93383e-014 -90 -90   XYZ
    dof rx
    limits (0.0 90.0)
  end
  begin
     id 30
     name rthumb
     direction -0.707107 -6.34933e-011 0.707107   
     length 0.687685   
     axis -90 -45 -5.69224e-014   XYZ
    dof rx rz
    limits (-45.0 45.0)
           (-45.0 45.0)
  end
:hierarchy
  begin
    root lhipjoint rhipjoint lowerback
    lhipjoint lfemur
    lfemur ltibia
    ltibia lfoot
    lfoot ltoes
    rhipjoint rfemur
    rfemur rtibia
    rtibia rfoot
    rfoot rtoes
    lowerback upperback
    upperback thorax
    thorax lowerneck lclavicle rclavicle
    lowerneck upperneck
    upperneck head
    lclavicle lhumerus
    lhumerus lradius
    lradius lwrist
    lwrist lhand lthumb
    lhand lfingers
    rclavicle rhumerus
    rhumerus rradius
    rradius rwrist
    rwrist rhand rthumb
    rhand rfingers
  end

#!OML:ASF E:\pregnant2\Project 1\Capture day 1\Session 1\pregnant2.ASF
:FULLY-SPECIFIED
:DEGREES
17
root -4.23443 15.6059 20.1684 27.9544 5.96323 -0.668263
lowerback -20.5286 0.825759 2.00248
upperback -16.1124 0.874514 -0.601884
thorax -6.16153 0.269294 -1.64945
lowerneck -15.5032 -3.95062 -5.12992
upperneck 35.3162 -5.54007 3.32024
head 15.1757 -2.58493 1.32934
rclavicle 2.48481e-016 -3.18055e-015
rhumerus -22.3232 6.39967 -79.643
rradius 115.673
rwrist 37.0042
rhand -5.91778 -8.62981
rfingers 7.12502
rthumb 19.9114 -37.6298
lclavicle 2.48481e-016 -3.18055e-015
lhumerus -26.7158 -2.11156 79.9517
lradius 118.179
lwrist -28.1258
lhand -9.2891 15.552
lfingers 7.12502
lthumb 16.6681 44.8563
rfemur -57.0189 -2.95395 19.7793
rtibia 64.0122
rfoot -28.8136 -14.5472
rtoes -13.8714
lfemur -57.8644 6.65047 -20.2655
ltibia 63.4248
lfoot -28.6303 5.69184
ltoes -13.8084
18
root -4.23515 15.6084 20.1684 27.958 5.97107 -0.665004
lowerback -20.5253 0.828651 2.00367
upperback -16.1167 0.878413 -0.603794
thorax -6.16807 0.271035 -1.65171
lowerneck -15.4982 -3.94658 -5.12852
upperneck 35.318 -5.52878 3.30541
head 15.1741 -2.58201 1.32499
rclavicle -7.55382e-015 1.19271e-014
rhumerus -22.3266 6.40091 -79.6342
rradius 115.672
rwrist 36.9929
rhand -5.91003 -8.63046
rfingers 7.12502
rthumb 19.9188 -37.6296
lclavicle -7.55382e-015 1.19271e-014
lhumerus -26.7311 -2.12289 79.9453
lradius 118.176
lwrist -28.1284
lhand -9.26766 15.5552
lfingers 7.12502
lthumb 16.6888 44.8578
rfemur -57.0057 -2.95947 19.7814
rtibia 63.9786
rfoot -28.7916 -14.5432
rtoes -13.8689
lfemur -57.8519 6.64506 -20.2635
ltibia 63.3875
lfoot -28.6095 5.68047
ltoes -13.7931
19
root -4.23587 15.6108 20.1684 27.9635 5.98066 -0.662054
lowerback -20.5167 0.830236 2.00924
upperback -16.1222 0.880085 -0.605031
thorax -6.17873 0.271208 -1.65608
lowerneck -15.503 -3.94195 -5.12757
upperneck 35.3245 -5.51626 3.29074
head 15.177 -2.57847 1.32087
rclavicle -6.85807e-015 7.15625e-015
rhumerus -22.3266 6.40298 -79.6263
rradius 115.665
rwrist 36.9922
rhand -5.92942 -8.61182
rfingers 7.12502
rthumb 19.9002 -37.6129
lclavicle -6.85807e-015 7.15625e-015
lhumerus -26.7497 -2.12957 79.9336
lradius 118.175
lwrist -28.127
lhand -9.25616 15.5593
lfingers 7.12502
lthumb 16.6998 44.8609
rfemur -56.995 -2.96549 19.7845
rtibia 63.9457
rfoot -28.7635 -14.5423
rtoes -13.8847
lfemur -57.8426 6.63866 -20.2606
ltibia 63.3513
lfoot -28.5882 5.6677
ltoes -13.771
20
root -4.23661 15.6131 20.1684 27.9706 5.99125 -0.659295
lowerback -20.5035 0.829952 2.01806
upperback -16.1295 0.878954 -0.604971
thorax -6.19393 0.269645 -1.66135
lowerneck -15.5154 -3.93518 -5.12713
upperneck 35.3355 -5.50082 3.27775
head 15.1837 -2.57342 1.31797
rclavicle 2.55935e-015 -9.0447e-015
rhumerus -22.3255 6.40918 -79.6194
rradius 115.652
rwrist 36.9997
rhand -5.97125 -8.58213
rfingers 7.12502
rthumb 19.86 -37.5874
lclavicle 2.55935e-015 -9.0447e-015
lhumerus -26.7725 -2.12833 79.9167
lradius 118.177
lwrist -28.1197
lhand -9.24218 15.5635
lfingers 7.12502
lthumb 16.7133 44.864
rfemur -56.9863 -2.97183 19.7879
rtibia 63.9131
rfoot -28.7397 -14.5414
rtoes -13.8942
lfemur -57.8356 6.63126 -20.257
ltibia 63.3151
lfoot -28.5673 5.65344
ltoes -13.7426
21
root -4.2373 15.6156 20.1684 27.9762 6.00304 -0.657144
lowerback -20.4985 0.830326 2.02422
upperback -16.1335 0.878916 -0.603887
thorax -6.20114 0.269083 -1.66375
lowerneck -15.5189 -3.9316 -5.13313
upperneck 35.334 -5.48915 3.26783
head 15.183 -2.57057 1.31686
rclavicle 1.1455e-014 -1.98785e-015
rhumerus -22.3241 6.40531 -79.6048
rradius 115.625
rwrist 37.0474
rhand -6.06642 -8.53269
rfingers 7.12502
rthumb 19.7685 -37.5474
lclavicle 1.1455e-014 -1.98785e-015
lhumerus -26.7911 -2.12091 79.9029
lradius 118.179
lwrist -28.1216
lhand -9.26245 15.5453
lfingers 7.12502
lthumb 16.6938 44.8475
rfemur -56.9743 -2.97955 19.7926
rtibia 63.8794
rfoot -28.7165 -14.5412
rtoes -13.9078
lfemur -57.826 6.62387 -20.2526
ltibia 63.2779
lfoot -28.5472 5.63889
ltoes -13.7147
